<?xml version="1.0" encoding="UTF-8"?>
<!DOCTYPE svg PUBLIC "-//W3C//DTD SVG 1.1//EN" "http://www.w3.org/Graphics/SVG/1.1/DTD/svg11.dtd">
<svg xmlns="http://www.w3.org/2000/svg" version="1.1" width="739px" height="709px" style="shape-rendering:geometricPrecision; text-rendering:geometricPrecision; image-rendering:optimizeQuality; fill-rule:evenodd; clip-rule:evenodd" xmlns:xlink="http://www.w3.org/1999/xlink">
<g><path style="opacity:0.993" fill="#1ed75f" d="M 343.5,4.5 C 471.562,0.457348 574.062,49.124 651,150.5C 712.889,241.492 730.222,340.492 703,447.5C 670.053,556.109 601.553,632.943 497.5,678C 396.97,715.878 298.636,710.878 202.5,663C 104.447,608.493 44.2806,525.993 22,415.5C 4.56825,302.502 33.2349,203.169 108,117.5C 171.85,49.6611 250.35,11.9944 343.5,4.5 Z M 303.5,189.5 C 381.12,188.374 456.787,199.874 530.5,224C 558.678,233.608 585.344,246.275 610.5,262C 623.636,275.889 624.802,290.722 614,306.5C 603.825,317.401 591.659,320.567 577.5,316C 525.838,286.91 470.505,268.577 411.5,261C 344.057,251.755 276.724,252.422 209.5,263C 194.016,266.038 178.682,269.704 163.5,274C 138.172,275.005 125.672,262.838 126,237.5C 130.54,220.967 141.373,211.467 158.5,209C 206.216,196.831 254.549,190.331 303.5,189.5 Z M 275.5,310.5 C 367.941,305.354 455.607,323.188 538.5,364C 546.5,368.667 554.5,373.333 562.5,378C 576.248,393.011 575.582,407.344 560.5,421C 554.34,424.873 547.673,426.207 540.5,425C 479.556,389.911 413.889,369.911 343.5,365C 286.568,360.452 230.735,366.286 176,382.5C 154.945,378.715 146.611,366.382 151,345.5C 153.451,340.42 156.951,336.253 161.5,333C 179.63,326.134 198.297,321.134 217.5,318C 236.883,314.719 256.217,312.219 275.5,310.5 Z M 300.5,423.5 C 361.97,421.895 420.97,433.061 477.5,457C 492.31,463.903 506.643,471.57 520.5,480C 530.119,489.812 530.953,500.312 523,511.5C 515.664,517.902 507.497,519.402 498.5,516C 441.208,481.634 379.042,465.134 312,466.5C 270.957,466.776 230.457,471.61 190.5,481C 174.915,482.871 165.915,476.038 163.5,460.5C 164.231,451.523 168.564,445.023 176.5,441C 217.404,431.085 258.738,425.252 300.5,423.5 Z"/></g>
</svg>
